<svg width="51" height="26" viewBox="0 0 51 26" fill="none" xmlns="http://www.w3.org/2000/svg">
<path opacity="0.5" d="M9.31788 20.524C14.0874 20.524 17.9539 16.6575 17.9539 11.888C17.9539 7.11848 14.0874 3.25201 9.31788 3.25201C4.54835 3.25201 0.681885 7.11848 0.681885 11.888C0.681885 16.6575 4.54835 20.524 9.31788 20.524Z" fill="#97AABD"/>
<path d="M16.8939 21.111V17.672C16.8968 17.2496 17.0666 16.8454 17.3664 16.5477C17.6661 16.2501 18.0714 16.083 18.4939 16.083H21.7259C22.1498 16.0826 22.5566 16.2498 22.8579 16.548C23.0064 16.6951 23.1243 16.8702 23.2048 17.0631C23.2853 17.256 23.3268 17.463 23.3269 17.672V21.11C23.3255 21.2909 23.3602 21.4703 23.4289 21.6377C23.4976 21.8051 23.5989 21.9571 23.7269 22.085C23.9874 22.3426 24.3395 22.4864 24.7059 22.485H26.9109C27.9394 22.4883 28.9274 22.0842 29.6589 21.361C30.0194 21.0047 30.3058 20.5803 30.5013 20.1126C30.6968 19.6448 30.7976 19.143 30.7979 18.636V8.83601C30.7975 8.42739 30.707 8.02387 30.533 7.65417C30.3589 7.28447 30.1055 6.95767 29.7909 6.69701L22.2909 0.760006C21.6571 0.254594 20.8669 -0.0139459 20.0565 0.000657214C19.246 0.0152603 18.466 0.312091 17.8509 0.840006L10.5199 6.70701C10.1905 6.95984 9.922 7.28317 9.73391 7.6533C9.54582 8.02342 9.44296 8.43095 9.43286 8.84601V18.632C9.4347 19.1405 9.53667 19.6436 9.73295 20.1127C9.92923 20.5818 10.216 21.0076 10.5768 21.3658C10.9377 21.7241 11.3656 22.0077 11.836 22.2006C12.3065 22.3935 12.8104 22.4918 13.3189 22.49H15.4739C15.8391 22.4911 16.19 22.3478 16.4502 22.0914C16.7103 21.835 16.8586 21.4862 16.8629 21.121L16.8939 21.111Z" fill="#97AABD"/>
</svg>
